<?xml version="1.0" encoding="utf-8"?>
<!-- Generator: Adobe Illustrator 27.5.0, SVG Export Plug-In . SVG Version: 6.00 Build 0)  -->
<svg version="1.1" xmlns="http://www.w3.org/2000/svg" xmlns:xlink="http://www.w3.org/1999/xlink" x="0px" y="0px"
	 viewBox="0 0 500 500" style="enable-background:new 0 0 500 500;" xml:space="preserve">
<g id="Background_Complete">
	<g>
		<rect y="382.398" style="fill:#EBEBEB;" width="500" height="0.25"/>
		<rect x="416.779" y="398.494" style="fill:#EBEBEB;" width="33.122" height="0.25"/>
		<rect x="322.527" y="401.208" style="fill:#EBEBEB;" width="8.693" height="0.25"/>
		<rect x="396.586" y="389.208" style="fill:#EBEBEB;" width="19.192" height="0.25"/>
		<rect x="52.459" y="390.888" style="fill:#EBEBEB;" width="43.193" height="0.25"/>
		<rect x="104.556" y="390.888" style="fill:#EBEBEB;" width="6.333" height="0.25"/>
		<rect x="131.471" y="395.111" style="fill:#EBEBEB;" width="93.676" height="0.25"/>
		<path style="fill:#EBEBEB;" d="M237.014,337.8H43.915c-3.147,0-5.708-2.561-5.708-5.708V60.66c0-3.147,2.561-5.708,5.708-5.708
			h193.099c3.146,0,5.707,2.561,5.707,5.708v271.432C242.721,335.239,240.16,337.8,237.014,337.8z M43.915,55.203
			c-3.01,0-5.458,2.448-5.458,5.458v271.432c0,3.01,2.448,5.458,5.458,5.458h193.099c3.009,0,5.457-2.448,5.457-5.458V60.66
			c0-3.009-2.448-5.458-5.457-5.458H43.915z"/>
		<path style="fill:#EBEBEB;" d="M453.31,337.8H260.212c-3.147,0-5.707-2.561-5.707-5.708V60.66c0-3.147,2.561-5.708,5.707-5.708
			H453.31c3.148,0,5.708,2.561,5.708,5.708v271.432C459.019,335.239,456.458,337.8,453.31,337.8z M260.212,55.203
			c-3.009,0-5.457,2.448-5.457,5.458v271.432c0,3.01,2.448,5.458,5.457,5.458H453.31c3.01,0,5.458-2.448,5.458-5.458V60.66
			c0-3.009-2.448-5.458-5.458-5.458H260.212z"/>
	</g>
	<g>
		<path style="fill:none;stroke:#EBEBEB;stroke-miterlimit:10;" d="M404.5,277.373c0,0-6.494-37.12,7.503-80.997
			C426,152.5,429,130.739,418,113.369"/>
		<path style="fill:none;stroke:#EBEBEB;stroke-miterlimit:10;" d="M397,275.445c-22.36-24.266,5.5-86.445-7.66-106.213
			c-13.16-19.768-18.988-53.574-18.988-53.574"/>
		<ellipse style="fill:#EBEBEB;" cx="418.375" cy="95.015" rx="21.375" ry="24.298"/>
		<ellipse style="fill:#F5F5F5;" cx="418.375" cy="151.829" rx="21.375" ry="24.298"/>
		<ellipse style="fill:#F0F0F0;" cx="372.609" cy="119.313" rx="21.375" ry="24.298"/>
		<path style="fill:none;stroke:#F5F5F5;stroke-miterlimit:10;" d="M413.836,165c0,0-15.836,17.226-16.836,44.113
			s3.667,64.198,0,78.117"/>
		<g>
			<rect x="47.365" y="158.649" style="fill:#F0F0F0;" width="176.289" height="223.233"/>
			<g>
				<rect x="53.596" y="166.785" style="fill:#E0E0E0;" width="163.826" height="47.735"/>
				<rect x="53.596" y="174.513" style="fill:#EBEBEB;" width="9.306" height="40.008"/>
				<rect x="98.596" y="174.513" style="fill:#EBEBEB;" width="9.306" height="40.008"/>
				
					<rect x="153.148" y="174.013" transform="matrix(0.9855 -0.1698 0.1698 0.9855 -30.6592 29.6196)" style="fill:#EBEBEB;" width="9.306" height="40.008"/>
				<rect x="65.128" y="179.785" style="fill:#EBEBEB;" width="9.306" height="34.735"/>
				<rect x="86.519" y="179.785" style="fill:#EBEBEB;" width="9.306" height="34.735"/>
				<rect x="140.511" y="179.785" style="fill:#EBEBEB;" width="9.306" height="34.735"/>
				
					<rect x="114.698" y="179.189" transform="matrix(0.9762 -0.2169 0.2169 0.9762 -39.7924 30.5671)" style="fill:#EBEBEB;" width="9.306" height="34.735"/>
				<rect x="77.828" y="172.526" style="fill:#EBEBEB;" width="4.653" height="41.994"/>
				<rect x="133.183" y="172.526" style="fill:#EBEBEB;" width="4.653" height="41.994"/>
			</g>
			<g>
				
					<rect x="53.596" y="222.079" transform="matrix(-1 -1.224647e-16 1.224647e-16 -1 271.0192 491.893)" style="fill:#E0E0E0;" width="163.826" height="47.735"/>
				
					<rect x="208.116" y="229.807" transform="matrix(-1 -1.224647e-16 1.224647e-16 -1 425.5392 499.6208)" style="fill:#EBEBEB;" width="9.306" height="40.008"/>
				
					<rect x="163.116" y="229.807" transform="matrix(-1 -1.224647e-16 1.224647e-16 -1 335.5392 499.6208)" style="fill:#EBEBEB;" width="9.306" height="40.008"/>
				
					<rect x="108.565" y="229.307" transform="matrix(-0.9855 -0.1698 0.1698 -0.9855 182.449 514.2284)" style="fill:#EBEBEB;" width="9.306" height="40.008"/>
				
					<rect x="196.585" y="235.079" transform="matrix(-1 -1.224647e-16 1.224647e-16 -1 402.4764 504.893)" style="fill:#EBEBEB;" width="9.306" height="34.735"/>
				
					<rect x="175.194" y="235.079" transform="matrix(-1 -1.224647e-16 1.224647e-16 -1 359.6947 504.893)" style="fill:#EBEBEB;" width="9.307" height="34.735"/>
				
					<rect x="121.201" y="235.079" transform="matrix(-1 -1.224647e-16 1.224647e-16 -1 251.7094 504.893)" style="fill:#EBEBEB;" width="9.306" height="34.735"/>
				
					<rect x="147.015" y="234.483" transform="matrix(-0.9762 -0.2169 0.2169 -0.9762 245.0981 530.6029)" style="fill:#EBEBEB;" width="9.306" height="34.735"/>
				
					<rect x="188.538" y="227.82" transform="matrix(-1 -1.224647e-16 1.224647e-16 -1 381.7285 497.6345)" style="fill:#EBEBEB;" width="4.653" height="41.994"/>
				
					<rect x="133.183" y="227.82" transform="matrix(-1 -1.224647e-16 1.224647e-16 -1 271.0192 497.6345)" style="fill:#EBEBEB;" width="4.653" height="41.994"/>
				<rect x="53.596" y="229.807" style="fill:#EBEBEB;" width="9.306" height="40.008"/>
				<rect x="65.128" y="235.079" style="fill:#EBEBEB;" width="9.306" height="34.735"/>
				<rect x="86.519" y="235.079" style="fill:#EBEBEB;" width="9.306" height="34.735"/>
				<rect x="77.828" y="227.82" style="fill:#EBEBEB;" width="4.653" height="41.994"/>
			</g>
			<g>
				<rect x="53.596" y="277.373" style="fill:#E0E0E0;" width="163.826" height="47.735"/>
				<g>
					<rect x="147.627" y="285.101" style="fill:#EBEBEB;" width="9.306" height="40.008"/>
					
						<rect x="202.178" y="284.601" transform="matrix(0.9855 -0.1698 0.1698 0.9855 -48.7292 39.5537)" style="fill:#EBEBEB;" width="9.306" height="40.008"/>
					<rect x="114.159" y="290.373" style="fill:#EBEBEB;" width="9.307" height="34.735"/>
					<rect x="135.55" y="290.373" style="fill:#EBEBEB;" width="9.306" height="34.735"/>
					<rect x="189.542" y="290.373" style="fill:#EBEBEB;" width="9.307" height="34.735"/>
					
						<rect x="163.729" y="289.777" transform="matrix(0.9762 -0.2169 0.2169 0.9762 -62.6126 43.8353)" style="fill:#EBEBEB;" width="9.306" height="34.735"/>
					<rect x="126.859" y="283.114" style="fill:#EBEBEB;" width="4.653" height="41.994"/>
					<rect x="182.214" y="283.114" style="fill:#EBEBEB;" width="4.653" height="41.994"/>
					
						<rect x="95.111" y="284.601" transform="matrix(0.9855 -0.1698 0.1698 0.9855 -50.2847 21.3694)" style="fill:#EBEBEB;" width="9.306" height="40.008"/>
					<rect x="82.475" y="290.373" style="fill:#EBEBEB;" width="9.307" height="34.735"/>
					
						<rect x="56.661" y="289.777" transform="matrix(0.9762 -0.2169 0.2169 0.9762 -65.1616 20.6118)" style="fill:#EBEBEB;" width="9.306" height="34.735"/>
					<rect x="75.146" y="283.114" style="fill:#EBEBEB;" width="4.653" height="41.994"/>
				</g>
			</g>
		</g>
		<g>
			<path style="fill:#EBEBEB;" d="M432.844,260.826H324.381c-4.879,0-8.833,3.955-8.833,8.833l-12.008,76.462H429.67l12.008-76.462
				C441.677,264.781,437.723,260.826,432.844,260.826z"/>
			<path style="fill:#E0E0E0;" d="M303.865,290.396L304,290h-42v93h52v-81.849C314,295.354,309.601,290.64,303.865,290.396z"/>
			<path style="fill:#F0F0F0;" d="M261.556,290.373L261.556,290.373c-5.952,0-10.778,4.825-10.778,10.778V383h21.555v-81.849
				C272.333,295.198,267.508,290.373,261.556,290.373z"/>
			<path style="fill:#E0E0E0;" d="M424.865,290.396L425,290h-42v93h52v-81.849C435,295.354,430.601,290.64,424.865,290.396z"/>
			<rect x="279.371" y="317.5" style="fill:#E0E0E0;" width="92.407" height="65.5"/>
			<path style="fill:#F5F5F5;" d="M389.34,333.5H285.388c-6.272,0-11.356-5.084-11.356-11.356v0c0-6.272,5.084-11.356,11.356-11.356
				H389.34V333.5z"/>
			<path style="fill:#F0F0F0;" d="M382.556,290.373L382.556,290.373c-5.952,0-10.778,4.825-10.778,10.778V383h21.555v-81.849
				C393.333,295.198,388.508,290.373,382.556,290.373z"/>
			<path style="fill:#E0E0E0;" d="M412.003,347.253h17.667l12.008-77.594c0-4.879-3.955-8.833-8.833-8.833h0
				c-4.878,0-8.833,3.955-8.833,8.833L412.003,347.253z"/>
		</g>
	</g>
</g>
<g id="Backgorund_Simple" style="display:none;">
	<g style="display:inline;">
		<path style="fill:#407BFF;" d="M160.651,80.264c30.318-11.273,51.033,10.796,65.855,34.705
			c10.193,16.441,20.483,35.239,38.131,44.841c20.502,11.154,45.22,0.795,66.143-3.373c25.084-4.997,48.289,2.826,64.214,23.549
			c34.866,45.369,13.176,118.012-32.014,147.996c-3.979,2.64-8.116,5.042-12.371,7.21c-62.029,31.612-151.521,32.438-198.475-25.723
			c-3.41-4.224-6.51-8.697-9.285-13.362c-5.99-10.07-10.365-21.123-13.951-32.248c-11.213-34.783-18.697-72.611-15.511-109.279
			C115.987,124.675,132.029,90.909,160.651,80.264z"/>
		<path style="opacity:0.9;fill:#FFFFFF;enable-background:new    ;" d="M160.651,80.264c30.318-11.273,51.033,10.796,65.855,34.705
			c10.193,16.441,20.483,35.239,38.131,44.841c20.502,11.154,45.22,0.795,66.143-3.373c25.084-4.997,48.289,2.826,64.214,23.549
			c34.866,45.369,13.176,118.012-32.014,147.996c-3.979,2.64-8.116,5.042-12.371,7.21c-62.029,31.612-151.521,32.438-198.475-25.723
			c-3.41-4.224-6.51-8.697-9.285-13.362c-5.99-10.07-10.365-21.123-13.951-32.248c-11.213-34.783-18.697-72.611-15.511-109.279
			C115.987,124.675,132.029,90.909,160.651,80.264z"/>
	</g>
</g>
<g id="Shadow_1_">
	<ellipse id="_x3C_Path_x3E__359_" style="fill:#F5F5F5;" cx="250" cy="416.238" rx="193.889" ry="11.323"/>
</g>
<g id="Plant">
	<g>
		<path style="fill:#407BFF;" d="M85.962,389.532c0,0-5.788-11.327,0.825-22.493c6.613-11.166,8.53-13.796,4.314-16.084
			c-4.216-2.288-6.149,8.933-6.149,8.933s-3.554-7.719-0.619-15.797c2.934-8.078,4.774-21.236,0.767-22.647
			c-4.007-1.411-0.765,16.414-4.242,22.49c0,0-2.92-6.764-3.401-13.253c-0.481-6.488,0.27-16.849-2.894-19.507
			s-5.191-0.819-2.082,13.5c3.11,14.319,3.087,25.958,3.087,25.958s-6.868-18.783-11.478-19.331
			c-4.61-0.548-4.604,5.535-0.658,10.811c3.946,5.276,11.555,14.728,12.803,19.591c0,0-7.539-14.135-14.32-9.803
			c-6.782,4.332,5.903,12.87,11.556,15.955c5.653,3.085,9.579,22.424,9.579,22.424L85.962,389.532z"/>
		<path style="opacity:0.2;enable-background:new    ;" d="M85.962,389.532c0,0-5.788-11.327,0.825-22.493
			c6.613-11.166,8.53-13.796,4.314-16.084c-4.216-2.288-6.149,8.933-6.149,8.933s-3.554-7.719-0.619-15.797
			c2.934-8.078,4.774-21.236,0.767-22.647c-4.007-1.411-0.765,16.414-4.242,22.49c0,0-2.92-6.764-3.401-13.253
			c-0.481-6.488,0.27-16.849-2.894-19.507s-5.191-0.819-2.082,13.5c3.11,14.319,3.087,25.958,3.087,25.958
			s-6.868-18.783-11.478-19.331c-4.61-0.548-4.604,5.535-0.658,10.811c3.946,5.276,11.555,14.728,12.803,19.591
			c0,0-7.539-14.135-14.32-9.803c-6.782,4.332,5.903,12.87,11.556,15.955c5.653,3.085,9.579,22.424,9.579,22.424L85.962,389.532z"/>
		<path style="fill:#407BFF;" d="M81.393,394.177c0,0,5.636-11.403-1.126-22.48c-6.762-11.077-8.714-13.681-4.529-16.025
			s6.268,8.85,6.268,8.85s3.45-7.766,0.408-15.804c-3.042-8.038-5.058-21.17-1.07-22.635c3.988-1.465,0.985,16.402,4.542,22.431
			c0,0,2.83-6.802,3.223-13.297c0.394-6.494-0.495-16.844,2.633-19.544c3.128-2.7,5.18-0.888,2.262,13.471
			c-2.918,14.359-2.739,25.997-2.739,25.997s6.616-18.873,11.218-19.483c4.602-0.609,4.677,5.473,0.802,10.801
			c-3.875,5.328-11.357,14.881-12.54,19.76c0,0,7.349-14.234,14.188-9.993c6.839,4.241-5.73,12.948-11.342,16.108
			c-5.612,3.16-9.279,22.55-9.279,22.55L81.393,394.177z"/>
		<g>
			<polygon style="fill:#407BFF;" points="107.387,386.116 60.828,386.116 64.596,416 103.619,416 			"/>
		</g>
		<g style="opacity:0.6;enable-background:new    ;">
			<polygon style="fill:#FFFFFF;" points="107.387,386.116 60.828,386.116 64.596,416 103.619,416 			"/>
		</g>
	</g>
</g>
<g id="Character_1">
	<g>
		<path style="fill:#E4897B;" d="M215.009,164.46l0.497-7.541c0,0-1.799-2.209-1.662-3.499c0.137-1.291,3.237-8.436,4.28-8.681
			c1.043-0.245,6.2,2.914,6.125,4.568c-0.074,1.653-3.64,7.444-4.193,7.86l-0.044,8.064L215.009,164.46z"/>
		<g>
			<path style="fill:#263238;" d="M147,140.932c-4.563,1.276-6.917,9.583-4.75,25.083s-3.833,36.083-3.833,36.083
				s24.917,7.75,40.583-2.167c15.667-9.917-6.667-29.583-6.667-29.583s9.083,6.167,12.167,14.5c0,0,1.083-2.5,0.5-4.583
				c0,0-2.333-5.5-8.5-10.417s-1-16.5-5.333-22.75C166.833,140.849,164.583,136.015,147,140.932z"/>
			
				<path style="fill:none;stroke:#263238;stroke-width:0.4885;stroke-linecap:round;stroke-linejoin:round;stroke-miterlimit:10;" d="
				M172.25,156.432c0,0-0.5,9,2.667,11.167c3.167,2.167,9.75,3.917,11.917,8.083"/>
		</g>
		<g>
			<path style="fill:#407BFF;" d="M176.845,178.141C186,178.815,204,193.291,209,194.291S214.667,160,214.667,160H222
				c0,0-1.333,38.73-6.667,43.015c-5.333,4.284-39.389-8.69-39.389-8.69L176.845,178.141z"/>
			<path style="opacity:0.3;enable-background:new    ;" d="M222,160c0,0-1.33,38.726-6.67,43.016
				c-3.48,2.8-19.21-1.777-29.71-5.267c-3.89-1.3-7.06-2.458-8.62-3.029c-0.68-0.26-1.06-0.404-1.06-0.404l0.91-16.172
				c9.15,0.67,27.15,15.143,32.15,16.143S214.67,160,214.67,160H222z"/>
		</g>
		<polygon style="fill:#407BFF;" points="214,159 222,159 222.875,162 214,162 		"/>
		<path style="opacity:0.2;enable-background:new    ;" d="M185.62,197.732c-3.89-1.3-7.06-2.45-8.62-3.02v-7.16
			C177,187.552,183.29,191.902,185.62,197.732z"/>
		<path style="fill:#E4897B;" d="M167.115,366.702c-6.38,8.02-12.115,15.3-17.115,20.6v0.01c-5,5.37-7.575,8.7-7.575,8.7
			l-4.947-2.84c0,0,4.571-7.23,10.771-17.2c5.27-8.46,11.726-18.9,17.586-28.57c7.58-12.5,14.163-23.71,15.903-27.72
			c1.24-2.85-2.118-13.8-5.828-24.12c-3.77-10.51-7.909-20.38-7.909-20.38l13.49-22.85c0,0,5.49,15.21,10.37,31.26
			c3.21,10.5,6.128,21.37,7.118,28.59C200.357,322.262,182.955,346.772,167.115,366.702z"/>
		<path style="opacity:0.2;enable-background:new    ;" d="M167.16,366.702c-6.38,8.02-12.51,15.3-17.07,20.6
			c-0.65-3.26-1.31-7.12-1.83-11.33c5.27-8.46,11.72-18.9,17.58-28.57C165.79,352.522,165.98,360.092,167.16,366.702z"/>
		<path style="opacity:0.2;enable-background:new    ;" d="M191.86,283.592l-15.95,11.97c-3.77-10.51-7.91-20.38-7.91-20.38
			l13.49-22.85C181.49,252.332,186.98,267.542,191.86,283.592z"/>
		<path style="fill:#E4897B;" d="M164,407.682l-5.75,0.75c0,0-8.25-40.61-8-74.12c0,0-4.48-15.49-7.16-33.73
			c-2.02-13.72-3.02-29-0.34-40.4l20,9l0.41,30l0.34,25L164,407.682z"/>
		<path style="opacity:0.2;enable-background:new    ;" d="M163.16,299.182l-20.07,1.4c-2.02-13.72-3.02-29-0.34-40.4l20,9
			L163.16,299.182z"/>
		<path style="fill:#263238;" d="M137.809,390.018c0.589-0.429,5.568,7.031,5.568,7.031s-1.109,7.776,1.138,12.79
			c2.247,5.015-2.118,4.587-5.747-0.164c-3.629-4.751-6.398-8.377-8.976-11.753C127.213,394.548,131.7,394.461,137.809,390.018z"/>
		<g>
			<path style="fill:#407BFF;" d="M145.065,402.678c-1.131-0.265-1.865-3.489-2.001-4.133c-0.007-0.031-0.007-0.063-0.001-0.094l0,0
				l0-0.001c0.005-0.025,0.013-0.049,0.026-0.072c0.001,0,0.001,0,0.001,0l0,0c0.013-0.023,0.029-0.043,0.049-0.06h0
				c0.001,0.002,0.001-0.001,0.001-0.001h0l0.001-0.001l0,0c0.024-0.021,0.052-0.036,0.082-0.046
				c0.104-0.033,2.208-0.697,3.344-0.04c0.362,0.209,0.59,0.525,0.678,0.939c0.094,0.442,0.013,0.753-0.241,0.924
				c-0.391,0.263-1.152,0.043-1.902-0.299c0.517,0.556,0.972,1.185,1.043,1.728c0.038,0.288-0.026,0.54-0.191,0.747
				c-0.265,0.335-0.524,0.426-0.729,0.426C145.167,402.698,145.113,402.69,145.065,402.678z M145.173,402.22
				c0.046,0.01,0.186,0.045,0.412-0.241c0.083-0.105,0.114-0.234,0.093-0.393c-0.097-0.738-1.211-1.819-1.997-2.479
				C144.038,400.492,144.642,402.095,145.173,402.22z M143.872,398.589c1.204,0.748,2.533,1.343,2.868,1.115
				c0.104-0.07,0.072-0.302,0.043-0.434c-0.06-0.282-0.208-0.489-0.452-0.63c-0.292-0.169-0.68-0.228-1.079-0.228
				C144.754,398.412,144.238,398.504,143.872,398.589z"/>
		</g>
		<path style="fill:#263238;" d="M156.21,404.796c0.017-0.728,8.968-0.174,8.968-0.174s5.506,5.626,10.855,6.885
			c5.349,1.259,2.36,4.494-3.618,4.494c-5.978,0-10.541,0-14.789,0C153.379,416,156.033,412.348,156.21,404.796z"/>
		<g>
			<path style="fill:#407BFF;" d="M166.177,405.761c-0.029-0.013-0.054-0.032-0.074-0.055l-0.001-0.001l0,0
				c-0.017-0.019-0.031-0.041-0.041-0.065l0,0l0-0.001c-0.01-0.023-0.016-0.048-0.017-0.073l0,0l0-0.001c0,0,0,0,0-0.001l0,0
				c-0.002-0.034,0.003-0.066,0.014-0.095c0.038-0.107,0.789-2.179,1.997-2.682c0.385-0.16,0.775-0.148,1.158,0.032
				c0.408,0.194,0.606,0.447,0.589,0.753c-0.027,0.47-0.665,0.943-1.392,1.331c0.755-0.073,1.532-0.052,2.007,0.219
				c0.252,0.145,0.413,0.349,0.478,0.606c0.135,0.531-0.043,0.812-0.216,0.954c-0.186,0.153-0.463,0.215-0.79,0.215
				C168.636,406.895,166.648,405.985,166.177,405.761z M166.996,405.611c1.32,0.559,2.958,1.052,3.381,0.705
				c0.037-0.03,0.148-0.122,0.059-0.473c-0.033-0.131-0.117-0.233-0.256-0.313c-0.248-0.142-0.626-0.195-1.055-0.195
				C168.436,405.335,167.615,405.474,166.996,405.611z M168.236,403.222c-0.702,0.291-1.255,1.309-1.535,1.923
				c1.325-0.504,2.605-1.199,2.628-1.602c0.007-0.125-0.197-0.241-0.32-0.299c-0.138-0.066-0.275-0.099-0.412-0.099
				C168.478,403.146,168.358,403.172,168.236,403.222z"/>
		</g>
		<path style="fill:#407BFF;" d="M172.044,289.932l21.626-11.333c-6.803-20.674-12.937-32.398-12.937-32.398
			c-21.26,3.641-19.318,20.445-19.318,20.445S166.83,277.863,172.044,289.932z"/>
		<path style="opacity:0.6;fill:#FFFFFF;enable-background:new    ;" d="M170.653,286.743c0.461,1.05,0.924,2.119,1.386,3.189
			l21.628-11.333c-6.801-20.672-12.933-32.398-12.933-32.398c-13.121,2.256-17.406,9.515-18.766,14.744
			c-0.84,3.238-0.557,5.701-0.557,5.701S165.905,275.963,170.653,286.743z"/>
		<path style="opacity:0.2;enable-background:new    ;" d="M170.653,286.743c-4.748-10.78-9.241-20.097-9.241-20.097
			s-0.283-2.464,0.557-5.701c1.255-0.774,2.218-0.934,2.218-0.934S169.964,269.082,170.653,286.743z"/>
		<g>
			<path style="fill:#407BFF;" d="M165.344,294.599l-0.746-34.588l17.145-5.005c0,0-1.348-15.87-3.349-23.695
				c0,0-27.846-6.932-32.094,2.507c-0.019,0.038-0.038,0.153-0.057,0.2l-0.066,0.089c0,0-8.001,14.072-5.612,60.493H165.344z"/>
			<path style="opacity:0.6;fill:#FFFFFF;enable-background:new    ;" d="M165.344,294.599l-0.746-34.588l17.145-5.005
				c0,0-1.348-15.87-3.349-23.695c0,0-27.846-6.932-32.094,2.507c-0.019,0.038-0.038,0.153-0.057,0.2l-0.066,0.089
				c0,0-8.001,14.072-5.612,60.493H165.344z"/>
		</g>
		<polygon style="fill:#263238;" points="146,229.03 146,233.75 178,231.278 178,225.696 		"/>
		
			<rect x="155.448" y="227.08" transform="matrix(0.9987 -0.051 0.051 0.9987 -11.5788 8.2642)" style="fill:#407BFF;" width="1.601" height="8.156"/>
		
			<rect x="163.979" y="227.151" transform="matrix(0.996 -0.0892 0.0892 0.996 -19.8331 15.8584)" style="fill:#FFFFFF;" width="7.077" height="5.367"/>
		
			<rect x="175.144" y="224.918" transform="matrix(0.9987 -0.051 0.051 0.9987 -11.4436 9.2659)" style="fill:#407BFF;" width="1.601" height="8.156"/>
		
			<rect x="155.448" y="227.08" transform="matrix(0.9987 -0.051 0.051 0.9987 -11.5788 8.2642)" style="opacity:0.6;fill:#FFFFFF;enable-background:new    ;" width="1.601" height="8.156"/>
		
			<rect x="175.144" y="224.918" transform="matrix(0.9987 -0.051 0.051 0.9987 -11.4436 9.2659)" style="opacity:0.6;fill:#FFFFFF;enable-background:new    ;" width="1.601" height="8.156"/>
		<path style="fill:#407BFF;" d="M178.393,226.259l-32.245,2.79c-0.765-11.988-1.529-19.719-8.628-41.081
			c-0.614-1.869-1.284-3.851-2.011-5.947c4.38-1.397,8.845-2.473,13.376-3.228c4.786-0.85,9.628-1.359,14.48-1.529
			c6.277-0.047,13.479,0.661,13.479,0.661s1.029,0.245,1.671,6.891C179.111,191.064,179.686,203.547,178.393,226.259z"/>
		<path style="opacity:0.3;enable-background:new    ;" d="M178.39,226.262l-32.24,2.79c-0.53-8.21-1.05-14.42-3.6-24.37
			c-0.83-3.22-1.87-6.84-3.19-11.04c-0.56-1.78-1.17-3.66-1.84-5.67c-0.61-1.87-1.28-3.86-2.01-5.95c4.38-1.4,8.84-2.47,13.38-3.23
			c4.78-0.85,9.62-1.36,14.48-1.53c6.27-0.05,13.48,0.66,13.48,0.66s1.02,0.25,1.67,6.89
			C179.11,191.062,179.69,203.552,178.39,226.262z"/>
		<polygon style="fill:#407BFF;" points="138.5,293.182 166.75,292.932 166.25,297.182 139.75,296.932 		"/>
		<polygon style="fill:#407BFF;" points="170.25,289.682 193.75,276.932 195,280.682 172.25,291.932 		"/>
		<path style="fill:none;stroke:#407BFF;stroke-miterlimit:10;" d="M156.878,177.696c0,0-8.878-0.346-8.378,4.195
			s22.153,17.708,22.153,17.708S169.692,175.667,156.878,177.696z"/>
		<path style="fill:#E4897B;" d="M160.71,184.392c-7.95-1.02-10.34-4.42-10.34-4.42c3.25-3.06,2.66-7.58,1.83-10.4
			c-0.45-1.56-0.98-2.6-0.98-2.6l9.57,1.79c-0.25,1.58-0.36,2.91-0.37,4.03c-0.02,1.23,0.09,2.2,0.27,2.96
			c0.65,2.86,2.28,2.9,2.28,2.9C164.65,181.792,160.71,184.392,160.71,184.392z"/>
		<path style="opacity:0.2;enable-background:new    ;" d="M160.42,172.792c-0.02,1.23,0.09,2.2,0.27,2.96
			c-3.8-0.5-6.68-3.54-8.49-6.18c-0.45-1.56-0.98-2.6-0.98-2.6l9.57,1.79C160.54,170.342,160.43,171.672,160.42,172.792z"/>
		<g>
			<path style="fill:#E4897B;" d="M158.84,142.265c8.322,0.309,10.835,4.863,11.127,13.462c0.364,10.745-2.294,18.271-12.615,15.597
				C143.336,167.691,145.02,141.752,158.84,142.265z"/>
			<path style="fill:#DE5753;" d="M164.605,155.062c0,0,1.072,2.217,2.293,3.541c0,0-0.754,1.105-2.229,0.86L164.605,155.062z"/>
			<g>
				<path style="fill:#263238;" d="M159.536,154.193c-0.009,0.684-0.387,1.234-0.843,1.228c-0.456-0.006-0.818-0.566-0.809-1.25
					c0.009-0.684,0.387-1.234,0.843-1.228C159.183,152.949,159.546,153.509,159.536,154.193z"/>
				<path style="fill:#263238;" d="M158.537,152.973l1.496-0.563C160.033,152.41,159.275,153.652,158.537,152.973z"/>
			</g>
			<g>
				<path style="fill:#263238;" d="M168.044,154.167c-0.009,0.684-0.387,1.234-0.843,1.228c-0.456-0.006-0.818-0.566-0.809-1.25
					c0.009-0.684,0.387-1.234,0.843-1.228C167.691,152.923,168.053,153.483,168.044,154.167z"/>
				<path style="fill:#263238;" d="M167.044,152.947l1.496-0.563C168.54,152.384,167.782,153.626,167.044,152.947z"/>
			</g>
			
				<path style="fill:none;stroke:#263238;stroke-width:0.708;stroke-linecap:round;stroke-linejoin:round;stroke-miterlimit:10;" d="
				M159.666,148.443c0,0-2.327-0.391-3.656,1.124"/>
			
				<path style="fill:none;stroke:#263238;stroke-width:0.708;stroke-linecap:round;stroke-linejoin:round;stroke-miterlimit:10;" d="
				M165.728,148.316c0,0,1.49-0.49,3.291,0.807"/>
			<g>
				<path style="fill:#263238;" d="M163.335,162.693c-0.518,0.986-1.078,2.854-1.078,2.854c-0.179-0.02-0.357-0.04-0.534-0.07
					c-2.413-0.335-3.422-1.287-3.809-2.242c-0.21-0.523-0.227-1.052-0.185-1.476c0.043-0.49,0.186-0.83,0.186-0.83
					c1.173,0.942,3.399,1.427,4.598,1.636C163.015,162.658,163.335,162.693,163.335,162.693z"/>
				<path style="fill:#FFFFFF;" d="M162.514,162.566l-0.34,0.833c-2.272-0.321-3.829-0.852-4.445-1.639
					c0.043-0.49,0.186-0.83,0.186-0.83C159.088,161.871,161.314,162.356,162.514,162.566z"/>
				<path style="fill:#DE5753;" d="M161.723,165.477c-2.413-0.335-3.422-1.287-3.809-2.242c0.818,0.146,1.788,0.412,2.606,0.903
					C161.147,164.51,161.505,165.001,161.723,165.477z"/>
			</g>
			<path style="fill:#263238;" d="M149.225,155.954c0,0,4.145-6.693,3.751-11.993c0,0,16.741-6.126,16.934,10.643
				c0,0,2.163-14.803-12.131-15.665c-14.271-0.861-15.009,20.069-7.852,26.579C149.927,165.518,146.659,160.141,149.225,155.954z"/>
			<path style="fill:#E4897B;" d="M150.519,157.761c-0.006-1.342-1.305-3.661-3.806-3.482c-2.589,0.186-4.015,5.434,2.353,6.945
				C149.979,161.441,150.531,160.561,150.519,157.761z"/>
			<path style="fill:#263238;" d="M154.167,136.765c4.5-1.25,16.5-1.417,19.333,11l-1.667,0.833c0,0-4-2.167-9-2.667
				c0,0-1-1.833-2.333-3.333c0,0,0.167,2,0,3.167c0,0-7.828,1.146-11.333,4.333c-5.5,5-5.833,8.167-5.833,8.167
				S139.519,140.834,154.167,136.765z"/>
			
				<path style="fill:none;stroke:#263238;stroke-width:0.4885;stroke-linecap:round;stroke-linejoin:round;stroke-miterlimit:10;" d="
				M153.5,137.682c0,0,16.083-5.583,21.167,9.667"/>
		</g>
		<circle style="fill:#FFFFFF;" cx="172.221" cy="201.204" r="2.646"/>
		<path style="opacity:0.2;enable-background:new    ;" d="M142.55,204.682c-0.83-3.22-1.87-6.84-3.19-11.04l1.36-2.84
			C140.72,190.802,144.25,199.072,142.55,204.682z"/>
		<path style="fill:#E4897B;" d="M93.75,164.897l-2.765-7.034c0,0,1.043-2.651,0.52-3.839c-0.523-1.188-5.648-7.054-6.716-6.97
			c-1.068,0.084-5.021,4.66-4.448,6.213c0.573,1.553,5.73,5.986,6.383,6.214l2.493,7.669L93.75,164.897z"/>
		<g>
			<path style="fill:#407BFF;" d="M135.51,182.021c-4.26,1.161-21.01,17.411-23.76,17.411S93.5,162.164,93.5,162.164l-5.25,3.313
				c0,0,10.75,41.705,17.25,45.205s35.319-12.246,35.319-12.246s0.427-8.081-0.821-11.793
				C138.75,182.932,135.51,182.021,135.51,182.021z"/>
			<path style="opacity:0.3;enable-background:new    ;" d="M135.51,182.021c-4.26,1.161-21.01,17.411-23.76,17.411
				S93.5,162.164,93.5,162.164l-5.25,3.313c0,0,10.75,41.705,17.25,45.205s35.319-12.246,35.319-12.246s0.427-8.081-0.821-11.793
				C138.75,182.932,135.51,182.021,135.51,182.021z"/>
		</g>
		<polygon style="fill:#407BFF;" points="87.017,165.23 93.75,160.929 95.489,163.399 88.25,167.932 		"/>
	</g>
</g>
<g id="Character_2">
	<g id="_x3C_Group_x3E__15_">
		<path style="fill:#B97964;" d="M322.333,155.455c0,0-25.96,24.527-37.982,28.627c-12.023,4.101-42.851,19.29-42.851,19.29
			l-4.732-3.729c-0.021-0.215-3.452,2.46-3.492,4.303c-0.028,1.341,3.391,12.574,4.104,12.567c3.298-0.033,6.954-7.559,6.954-7.559
			s39.495-10.294,46.581-13.397c7.086-3.103,36.252-25.859,36.252-25.859L322.333,155.455z"/>
		<g>
			<path style="fill:#407BFF;" d="M328.095,149.566c-7.595,1.889-17.345,15.188-17.345,15.188l7,12.427l11.333-4.225
				L328.095,149.566z"/>
			<path style="opacity:0.6;fill:#FFFFFF;" d="M329.08,172.955l-10,3.72l-1.33,0.5l-7-12.42c0,0,9.75-13.3,17.34-15.19l0.46,10.85
				L329.08,172.955z"/>
		</g>
		<polygon style="fill:#407BFF;" points="310.75,162.455 319,177.18 316.167,179.249 309.402,164.603 		"/>
		<path style="opacity:0.2;enable-background:new    ;" d="M329.08,172.955l-10,3.72c0.92-8.08,7.54-14.53,9.47-16.26
			L329.08,172.955z"/>
		<polygon style="fill:#B97964;" points="329.46,408.317 321.092,409.201 319.522,391.154 327.889,390.27 		"/>
		<polygon style="fill:#B97964;" points="371.211,407.707 363.104,407.707 362.434,388.925 370.551,388.925 		"/>
		<path style="fill:#263238;" d="M361.98,406.769h9.85c0.332,0.002,0.619,0.233,0.691,0.557l1.599,7.22
			c0.137,0.646-0.276,1.281-0.923,1.418c-0.087,0.018-0.175,0.027-0.263,0.026c-3.187-0.052-5.508-0.248-9.51-0.248
			c-2.465,0-9.902,0.258-13.306,0.258c-3.404,0-3.847-3.362-2.455-3.672c6.251-1.361,10.954-3.249,12.955-5.044
			C360.989,406.944,361.476,406.759,361.98,406.769z"/>
		<path style="fill:#407BFF;" d="M359.298,408.192c-0.551,0.044-1.101-0.102-1.557-0.413c-0.304-0.251-0.456-0.641-0.402-1.031
			c-0.006-0.228,0.124-0.439,0.33-0.536c0.897-0.464,3.517,1.145,3.806,1.331c0.068,0.035,0.106,0.11,0.093,0.186
			c-0.01,0.079-0.067,0.145-0.144,0.165C360.728,408.071,360.015,408.171,359.298,408.192z M358.091,406.511
			c-0.086-0.007-0.172,0.011-0.248,0.051c-0.051,0-0.113,0.072-0.124,0.227c-0.033,0.259,0.064,0.517,0.258,0.691
			c0.91,0.412,1.942,0.464,2.888,0.144C360.021,407.08,359.079,406.702,358.091,406.511z"/>
		<path style="fill:#407BFF;" d="M361.371,407.903h-0.093c-0.835-0.454-2.455-2.238-2.29-3.094c0.059-0.295,0.318-0.506,0.619-0.505
			c0.294-0.039,0.592,0.052,0.815,0.247c0.939,0.763,1.135,3.094,1.145,3.208c0.001,0.071-0.034,0.137-0.093,0.175
			C361.437,407.935,361.401,407.924,361.371,407.903z M359.741,404.613h-0.093c-0.247,0-0.268,0.144-0.279,0.196
			c-0.103,0.526,0.928,1.877,1.764,2.506c-0.054-0.924-0.389-1.809-0.959-2.537C360.055,404.672,359.901,404.614,359.741,404.613z"
			/>
		<path style="fill:#263238;" d="M320.207,406.511h9.85c0.332,0.002,0.619,0.233,0.691,0.557l1.599,7.22
			c0.137,0.646-0.276,1.281-0.923,1.418c-0.087,0.018-0.175,0.027-0.263,0.026c-3.187-0.052-5.508-0.247-9.51-0.247
			c-2.465,0-9.902,0.258-13.305,0.258c-3.404,0-3.847-3.362-2.455-3.672c6.25-1.362,10.954-3.249,12.955-5.044
			C319.216,406.686,319.703,406.501,320.207,406.511z"/>
		<path style="fill:#407BFF;" d="M317.525,407.934c-0.551,0.044-1.1-0.102-1.557-0.413c-0.304-0.251-0.456-0.641-0.402-1.031
			c-0.006-0.228,0.124-0.439,0.33-0.536c0.897-0.464,3.517,1.145,3.806,1.331c0.068,0.035,0.106,0.11,0.093,0.186
			c-0.01,0.079-0.067,0.145-0.144,0.165C318.955,407.813,318.242,407.913,317.525,407.934z M316.318,406.253
			c-0.086-0.007-0.172,0.011-0.248,0.052c-0.052,0-0.113,0.072-0.124,0.227c-0.033,0.259,0.064,0.517,0.258,0.691
			c0.91,0.412,1.942,0.464,2.888,0.144C318.247,406.822,317.306,406.444,316.318,406.253z"/>
		<path style="fill:#407BFF;" d="M319.598,407.645h-0.093c-0.836-0.454-2.455-2.238-2.29-3.094c0.059-0.295,0.318-0.506,0.619-0.505
			c0.294-0.039,0.591,0.052,0.815,0.248c0.939,0.763,1.135,3.094,1.145,3.208c0.001,0.071-0.034,0.137-0.093,0.176
			C319.664,407.677,319.628,407.666,319.598,407.645z M317.969,404.355h-0.093c-0.247,0-0.268,0.144-0.279,0.196
			c-0.103,0.526,0.928,1.877,1.764,2.506c-0.054-0.924-0.389-1.809-0.959-2.537C318.282,404.415,318.128,404.356,317.969,404.355z"
			/>
		<polygon style="opacity:0.2;enable-background:new    ;" points="327.889,390.27 319.522,391.154 320.339,400.462 
			328.706,399.578 		"/>
		<polygon style="opacity:0.2;enable-background:new    ;" points="370.551,388.935 362.434,388.935 362.784,398.62 370.901,398.62 
					"/>
		<path style="fill:#407BFF;" d="M367.203,224.178h-43.035c-4.092,22.344-16.9,101.414-7.711,171.865l14.569-1.807
			c0,0-1.349-93.527,11.515-128.103c1.479,18.504,3.236,38.193,4.762,48.67c3.744,25.786,11.758,82.139,11.758,82.139h14.832
			c0,0-3.032-53.94-4.435-79.283C367.924,290.147,367.263,229.828,367.203,224.178z"/>
		<path style="opacity:0.2;enable-background:new    ;" d="M342.537,266.068c-1.898,5.095-3.476,11.459-4.807,18.617
			c-1.203-16.466,3.61-33.931,3.61-33.931L342.537,266.068z"/>
		<g>
			<polygon style="fill:#407BFF;" points="314.791,399.437 332.823,396.754 332.272,391.761 313.514,394.223 			"/>
			<polygon style="opacity:0.6;fill:#FFFFFF;enable-background:new    ;" points="314.791,399.437 332.823,396.754 332.272,391.761 
				313.514,394.223 			"/>
		</g>
		<g>
			<polygon style="fill:#407BFF;" points="357.276,397.063 374.769,397.063 374.769,391.833 356.616,391.493 			"/>
			<polygon style="opacity:0.6;fill:#FFFFFF;enable-background:new    ;" points="357.276,397.063 374.769,397.063 374.769,391.833 
				356.616,391.493 			"/>
		</g>
		<g>
			<path style="fill:#407BFF;" d="M328.095,149.566c0,0,27.376-1.332,47.77,3.816c0,0-6.957,62.324-6.615,88.324l-50.25-1.75
				C319,239.955,320.985,176.177,328.095,149.566z"/>
			<path style="opacity:0.6;fill:#FFFFFF;" d="M375.86,153.385c0,0-0.81,7.27-1.87,17.88c-1.06,10.69-2.37,24.77-3.33,38.22
				c-0.9,12.29-1.52,24.05-1.41,32.22l-50.25-1.75c0,0,1.99-63.78,9.09-90.39C328.09,149.565,355.47,148.235,375.86,153.385z"/>
		</g>
		<g>
			<g>
				<polygon style="fill:#263238;" points="235.466,188.504 235.685,188.493 235.667,188.455 235.699,188.455 235.693,188.393 				
					"/>
				<polygon style="fill:#263238;" points="320.402,176.952 319.619,177 263.333,177 236.165,188 235.699,188 240.667,240 
					294.19,240 324.209,227.967 				"/>
			</g>
			<g>
				<polygon style="opacity:0.2;fill:#FFFFFF;" points="242.219,192.084 244.399,194.1 247.296,193.447 246.053,196.144 
					247.569,198.697 244.62,198.348 242.66,200.579 242.081,197.667 239.354,196.492 241.945,195.041 				"/>
				<polygon style="opacity:0.2;fill:#FFFFFF;" points="272.697,196.363 272.497,199.326 274.825,201.17 271.945,201.896 
					270.91,204.679 269.33,202.165 266.363,202.041 268.266,199.761 267.467,196.901 270.224,198.006 				"/>
				<polygon style="opacity:0.2;fill:#FFFFFF;" points="271.697,228.363 271.497,231.326 273.825,233.17 270.945,233.896 
					269.91,236.679 268.33,234.165 265.363,234.041 267.266,231.761 266.467,228.901 269.224,230.006 				"/>
				<polygon style="opacity:0.2;fill:#FFFFFF;" points="258.697,220.363 258.497,223.326 260.825,225.17 257.945,225.896 
					256.91,228.679 255.33,226.165 252.363,226.041 254.266,223.761 253.467,220.901 256.224,222.006 				"/>
				<polygon style="opacity:0.2;fill:#FFFFFF;" points="273.49,219.377 273.373,221.113 274.737,222.193 273.05,222.618 
					272.444,224.248 271.519,222.776 269.781,222.703 270.896,221.368 270.427,219.693 272.042,220.34 				"/>
				<polygon style="opacity:0.2;fill:#FFFFFF;" points="248.49,231.377 248.373,233.113 249.737,234.193 248.05,234.618 
					247.444,236.248 246.519,234.776 244.781,234.703 245.895,233.368 245.428,231.693 247.042,232.34 				"/>
				<polygon style="opacity:0.2;fill:#FFFFFF;" points="246.49,214.377 246.373,216.113 247.737,217.193 246.05,217.618 
					245.444,219.248 244.519,217.776 242.781,217.703 243.895,216.368 243.428,214.693 245.042,215.34 				"/>
				<polygon style="opacity:0.2;fill:#FFFFFF;" points="283.49,189.377 283.373,191.113 284.737,192.193 283.05,192.618 
					282.444,194.248 281.519,192.776 279.781,192.703 280.896,191.368 280.427,189.693 282.042,190.34 				"/>
				<polygon style="opacity:0.2;fill:#FFFFFF;" points="252.04,201.204 253.779,204.727 257.667,205.292 254.853,208.034 
					255.518,211.906 252.04,210.078 248.563,211.906 249.227,208.034 246.414,205.292 250.301,204.727 				"/>
				<polygon style="opacity:0.2;fill:#FFFFFF;" points="277.708,208.368 281.262,210.042 284.656,208.063 284.162,211.961 
					287.093,214.577 283.234,215.312 281.651,218.908 279.76,215.464 275.851,215.07 278.541,212.207 				"/>
				<polygon style="opacity:0.2;fill:#FFFFFF;" points="285.04,225.204 286.779,228.727 290.667,229.292 287.853,232.034 
					288.517,235.906 285.04,234.078 281.563,235.906 282.227,232.034 279.414,229.292 283.301,228.727 				"/>
			</g>
			<g>
				<polygon style="opacity:0.2;fill:#FFFFFF;" points="294.772,190.299 296.012,192.034 297.462,191.013 296.983,193.864 
					297.914,196.219 296.378,196.246 295.503,198.723 295.033,195.889 293.561,195.064 294.807,193.286 				"/>
				<polygon style="opacity:0.2;fill:#FFFFFF;" points="310.688,190.689 310.761,193.672 312.066,195.217 310.63,196.308 
					310.263,199.219 309.302,196.91 307.77,197.164 308.613,194.646 308.032,191.892 309.514,192.645 				"/>
				<polygon style="opacity:0.2;fill:#FFFFFF;" points="312.072,222.76 312.145,225.743 313.451,227.288 312.014,228.379 
					311.647,231.29 310.686,228.981 309.154,229.235 309.997,226.717 309.417,223.963 310.898,224.716 				"/>
				<polygon style="opacity:0.2;fill:#FFFFFF;" points="304.917,216.43 304.99,219.413 306.296,220.957 304.859,222.049 
					304.492,224.959 303.531,222.65 301.999,222.904 302.842,220.386 302.262,217.633 303.744,218.385 				"/>
				<polygon style="opacity:0.2;fill:#FFFFFF;" points="312.461,213.562 312.504,215.31 313.268,216.214 312.427,216.853 
					312.212,218.558 311.649,217.206 310.752,217.355 311.245,215.88 310.905,214.267 311.773,214.708 				"/>
				<polygon style="opacity:0.2;fill:#FFFFFF;" points="300.326,228.725 300.368,230.472 301.133,231.376 300.292,232.016 
					300.077,233.72 299.514,232.368 298.617,232.517 299.11,231.042 298.771,229.429 299.638,229.87 				"/>
				<polygon style="opacity:0.2;fill:#FFFFFF;" points="298.29,212.009 298.332,213.757 299.097,214.661 298.255,215.3 
					298.041,217.005 297.478,215.653 296.581,215.801 297.074,214.327 296.734,212.714 297.602,213.155 				"/>
				<polygon style="opacity:0.2;fill:#FFFFFF;" points="315.82,182.342 315.863,184.089 316.627,184.994 315.786,185.633 
					315.571,187.337 315.008,185.985 314.111,186.134 314.604,184.659 314.265,183.047 315.133,183.487 				"/>
				<polygon style="opacity:0.2;fill:#FFFFFF;" points="300.36,198.152 301.462,201.448 303.494,201.517 302.211,204.612 
					302.782,208.393 300.886,207.011 299.208,209.279 299.319,205.329 297.711,202.95 299.676,201.891 				"/>
				<polygon style="opacity:0.2;fill:#FFFFFF;" points="313.975,202.035 315.901,203.254 317.527,200.846 317.505,204.8 
					319.166,207.039 317.226,208.263 316.626,212.054 315.45,208.858 313.418,208.962 314.631,205.762 				"/>
				<polygon style="opacity:0.2;fill:#FFFFFF;" points="318.741,217.908 319.844,221.203 321.875,221.272 320.592,224.368 
					321.163,228.149 319.268,226.767 317.589,229.034 317.701,225.084 316.093,222.705 318.057,221.646 				"/>
			</g>
			<polygon style="opacity:0.2;enable-background:new    ;" points="289.19,188.153 320.402,177.18 324.209,228.38 294.19,240.598 
							"/>
			<polygon style="opacity:0.2;fill:#FFFFFF;" points="235.466,188.201 263.333,177 320,177 289.19,187.812 			"/>
			<g>
				<polygon style="fill:#407BFF;" points="313.833,232.727 310.25,180 255,180 249.782,182.714 300.25,184.091 306.7,235.336 				
					"/>
				<polygon style="fill:#407BFF;" points="290.833,177 264.918,187.751 268,240 260,240 254.5,187.912 283.5,177 				"/>
				<g style="opacity:0.2;">
					<polygon style="fill:#FFFFFF;" points="313.833,232.727 310.25,180 255,180 249.782,182.714 300.25,184.091 306.7,235.336 
											"/>
					<polygon style="fill:#FFFFFF;" points="290.833,177 264.918,187.751 268,240 260,240 254.5,187.912 283.5,177 					"/>
				</g>
				<polygon style="opacity:0.2;enable-background:new    ;" points="310.25,180.455 300.25,184.205 306.7,235.507 313.833,232.955 
									"/>
				<polygon style="opacity:0.1;enable-background:new    ;" points="254.5,188.139 264.918,187.865 268,240 260,240 				"/>
			</g>
			<g>
				<path style="fill:#407BFF;" d="M274.28,181.088c0,0-15.024-11.333-21.524-8.5c-5.15,2.245-4.398,8.954,8.638,10.663
					c-4.89,0.442-10.688,1.214-14.144,2.537l9.833,1.167c0,0,9.479-2.668,18-3.38c0,0,0.417,1.546,0,3.38l6.724-0.583
					c0,0-1.986-1.893-3.598-3.285c7.707-0.765,24.224-3.24,25.88-10.499C306.256,163.088,282.471,169.421,274.28,181.088z
					 M252.756,174.505c1.583-2.5,20.583,7.417,20.583,7.417C264.421,183.167,251.173,177.005,252.756,174.505z M275.989,181.505
					c0,0,20.351-14.583,25.267-11.333C306.173,173.421,282.138,182.088,275.989,181.505z"/>
				<path style="opacity:0.1;fill:#FFFFFF;" d="M274.28,181.088c0,0-15.024-11.333-21.524-8.5c-5.15,2.245-4.398,8.954,8.638,10.663
					c-4.89,0.442-10.688,1.214-14.144,2.537l9.833,1.167c0,0,9.479-2.668,18-3.38c0,0,0.417,1.546,0,3.38l6.724-0.583
					c0,0-1.986-1.893-3.598-3.285c7.707-0.765,24.224-3.24,25.88-10.499C306.256,163.088,282.471,169.421,274.28,181.088z
					 M252.756,174.505c1.583-2.5,20.583,7.417,20.583,7.417C264.421,183.167,251.173,177.005,252.756,174.505z M275.989,181.505
					c0,0,20.351-14.583,25.267-11.333C306.173,173.421,282.138,182.088,275.989,181.505z"/>
			</g>
		</g>
		<path style="opacity:0.2;enable-background:new    ;" d="M373.99,171.265c-1.06,10.69-2.37,24.77-3.33,38.22
			c-22.28-25.75-6.34-44.67-6.34-44.67L373.99,171.265z"/>
		<path style="fill:#407BFF;" d="M339.376,149.411c0,0-0.203,5.711,7.294,6.044c7.497,0.333,17.55-4.29,17.55-4.29
			S349.918,148.033,339.376,149.411z"/>
		<path style="fill:#B97964;" d="M360.298,150.62c-3.95,3.589-13.629,2.262-13.629,2.262s-6.041-1.654-4.772-3.541
			c3.558-0.588,5.281-2.249,5.993-4.373c0.413-1.238,0.474-2.63,0.361-4.064c-0.052-0.753-0.165-1.516-0.299-2.269l11.964-8.86
			C358.349,135.623,356.43,146.381,360.298,150.62z"/>
		<path style="opacity:0.2;enable-background:new    ;" d="M357.152,135.407c-0.474,7.179-6.374,9.159-9.262,9.561
			c0.413-1.238,0.474-2.63,0.361-4.064L357.152,135.407z"/>
		<g>
			<path style="fill:#263238;" d="M336.507,112.715c0,0-1.699,11.174,4.232,15.471c5.931,4.298,5.931-16.503,5.931-16.503
				L336.507,112.715z"/>
			<path style="fill:#B97964;" d="M357.957,137.067c-2.877,4.136-7.571,5.219-11.645,3.93c-2.62-0.825-4.982-2.64-6.446-5.25
				c-0.196-0.34-0.371-0.701-0.536-1.073c-2.919-6.828-3.847-18.772,3.373-23.248c5.126-3.228,11.913-1.692,15.141,3.445
				c0.928,1.454,1.485,3.115,1.65,4.837C360.381,127.692,361.278,132.343,357.957,137.067z"/>
			<path style="fill:#263238;" d="M347.856,124.042c0.154,0.631-0.137,1.222-0.566,1.295c-0.428,0.073-0.851-0.398-0.964-1.039
				c-0.114-0.641,0.148-1.225,0.566-1.295C347.31,122.933,347.74,123.391,347.856,124.042z"/>
			<path style="fill:#263238;" d="M340.569,125.286c0.154,0.631-0.147,1.225-0.566,1.295c-0.418,0.07-0.851-0.398-0.964-1.039
				s0.147-1.225,0.566-1.295C340.022,124.177,340.462,124.675,340.569,125.286z"/>
			<path style="fill:#A24E3F;" d="M342.938,125.208c-0.431,2.103-1.15,4.135-2.138,6.041c1.006,0.488,2.176,0.506,3.197,0.049
				L342.938,125.208z"/>
			<path style="fill:#263238;" d="M349.714,121.296c-0.137,0.044-0.286,0.011-0.392-0.085c-0.696-0.685-1.674-1.002-2.639-0.854
				c-0.205,0.05-0.411-0.075-0.462-0.279c-0.05-0.205,0.075-0.411,0.279-0.462c0.001,0,0.001,0,0.002,0
				c1.215-0.218,2.461,0.167,3.341,1.033c0.158,0.14,0.173,0.381,0.033,0.539c-0.002,0.002-0.004,0.005-0.006,0.007
				C349.823,121.237,349.771,121.271,349.714,121.296z"/>
			<path style="fill:#263238;" d="M345.614,134.457L345.614,134.457c1.92-0.036,3.703-1.006,4.776-2.599
				c0.055-0.097,0.023-0.221-0.072-0.279c-0.091-0.058-0.212-0.032-0.271,0.059c-0.003,0.004-0.005,0.009-0.008,0.013
				c-1.022,1.453-2.669,2.34-4.445,2.393c-0.108-0.001-0.196,0.087-0.197,0.195c0,0.007,0,0.015,0.001,0.022
				c-0.001,0.108,0.087,0.196,0.195,0.197C345.6,134.458,345.607,134.458,345.614,134.457z"/>
			<path style="fill:#263238;" d="M337.008,123.308c-0.066,0.041-0.143,0.059-0.22,0.054c-0.203-0.056-0.323-0.266-0.267-0.469
				c0.001-0.003,0.001-0.005,0.002-0.008c0.319-1.197,1.2-2.164,2.362-2.592c0.202-0.061,0.415,0.053,0.476,0.255
				c0,0,0,0.001,0,0.001c0.056,0.202-0.057,0.411-0.255,0.477l0,0c-0.908,0.365-1.589,1.137-1.839,2.083
				C337.215,123.209,337.12,123.282,337.008,123.308z"/>
			<path style="fill:#263238;" d="M351.999,110.892v3.566c1.227,0.473,2.081,1.689,1.719,3.138
				c-0.774,3.094,1.463,7.474,3.954,9.025c0,0-0.086-1.289,1.031-1.118c1.117,0.172,1.633,6.876-0.086,10.314
				c0,0,2.836-3.266,3.782-10.486c0.874-6.677,0.423-12.098-1.213-14.44H351.999z"/>
			<g>
				<path style="fill:#407BFF;" d="M364.14,123.715c0,0-2.21-3.71-7.11-6.52c-4.79-2.76-12.15-4.66-22.53-1.41
					c0,0,3.75-18.16,20.08-12c0.14,0.05,0.27,0.1,0.4,0.16C370.81,110.185,364.14,123.715,364.14,123.715z"/>
				<path style="opacity:0.2;fill:#FFFFFF;" d="M357.03,117.195c-4.79-2.76-12.15-4.66-22.53-1.41c0,0,3.75-18.16,20.08-12
					c0.14,0.05,0.27,0.1,0.4,0.16c1.02,0.59,1.91,1.3,2.44,2.13C358.87,108.355,357.81,114.005,357.03,117.195z"/>
				<g>
					<path style="fill:#407BFF;" d="M336.287,116.747c-2.192,0.444-9.412-4.604-6.537-6.894c2.31-1.84,8.793-2.385,13.875-1.21
						c9.438,2.182,13.542,8.479,13.542,8.479S345.121,113.247,336.287,116.747z"/>
					<path style="opacity:0.2;enable-background:new    ;" d="M336.287,116.747c-2.192,0.444-9.412-4.604-6.537-6.894
						c2.31-1.84,8.793-2.385,13.875-1.21c9.438,2.182,13.542,8.479,13.542,8.479S345.121,113.247,336.287,116.747z"/>
				</g>
			</g>
			<path style="fill:#B97964;" d="M364.06,125.677c-0.572,1.941-1.891,3.576-3.667,4.546c-2.361,1.268-4.125-0.705-3.965-3.241
				c0.164-2.252,1.564-5.696,4.179-5.893C363.223,120.892,364.733,123.285,364.06,125.677z"/>
		</g>
		<path style="fill:#407BFF;" d="M329.81,173.005l-2.683,18.7l4.999-0.106l-0.652,8.544l-4.837-0.133l-1.498,3.465l8.508,0.835
			l5.604-30.42L329.81,173.005z M331.042,187.62l2.456-9.932l1.754,0.146l-1.71,9.733L331.042,187.62z"/>
		<path style="fill:#407BFF;" d="M343.022,173.948l-2.687,18.475l4.999-0.106l-0.647,8.769l-4.835-0.021l-1.497,3.521l8.509,0.863
			l5.602-30.518L343.022,173.948z M344.248,188.339l2.461-9.708l1.751,0.034l-1.712,9.621L344.248,188.339z"/>
		<path style="fill:#B97964;" d="M376.621,175.964c0,0-8.551,23.588-11.086,28.54c-2.535,4.951-52.326,9.827-52.326,9.827
			s-11.043,7.124-12.959,6.791s-6.583-9.667-4.583-10.667s8.083-7.886,11.375-7.776c3.292,0.11,6.168,3.776,6.168,3.776
			s41.016-11.756,43.209-12.624c1.582-0.626,8.057-23.468,8.057-23.468L376.621,175.964z"/>
		<g>
			<path style="fill:#407BFF;" d="M375.865,153.381c10.218,4.301,0,33.694,0,33.694l-15.567-6.62
				C360.298,180.455,365.397,148.974,375.865,153.381z"/>
			<path style="opacity:0.6;fill:#FFFFFF;" d="M375.865,153.381c10.218,4.301,0,33.694,0,33.694l-15.567-6.62
				C360.298,180.455,365.397,148.974,375.865,153.381z"/>
		</g>
		<polygon style="fill:#407BFF;" points="359.5,178.093 377.75,185.985 375.865,189.955 358.5,182.086 		"/>
	</g>
</g>
<g id="Bag">
	<g>
		<path style="fill:none;stroke:#263238;stroke-linecap:round;stroke-linejoin:round;stroke-miterlimit:10;" d="M417.722,357.333
			c0,0-1.84-19.482-10.389-20c-8.549-0.518-7.833,18-7.833,18"/>
		<polygon style="fill:#407BFF;" points="381.333,416 427.333,416 421.667,365.315 423.667,353 385.333,353 387.928,365.182 		"/>
		<polygon style="opacity:0.2;enable-background:new    ;" points="410,353 411.667,366.5 408.112,415.742 416,407.676 427.333,416 
			421.667,365.315 423.667,353 		"/>
		<polygon style="opacity:0.2;enable-background:new    ;" points="416.333,408 416.333,364 417.722,353 410.333,353 
			411.667,365.667 408.112,415.742 		"/>
		<path style="fill:none;stroke:#263238;stroke-linecap:round;stroke-linejoin:round;stroke-miterlimit:10;" d="M392.167,357.333
			c0,0,4.583-20.794,13.25-20.647c8.667,0.147-1.083,20.647-1.083,20.647"/>
	</g>
</g>
<g id="Gifts">
	<g>
		<g>
			<g>
				<path style="fill:#263238;" d="M219.064,379.988l-1.007-2.649c-13.469,0.621-14.979-4.451-15.116-6.067
					c-0.255-2.995,2.453-5.723,6.035-6.081c4.938-0.506,8.227,3.702,9.904,6.616c2.543-3.06,7.46-5.806,11.167-5.806
					c0.001,0,0.002,0,0.004,0c2.838,0,4.854,1.553,5.529,4.254c0.543,2.17-0.227,3.621-0.967,4.456
					c-3.132,3.53-12.165,2.901-14.882,2.618L219.064,379.988z M220.657,374.404c4.093,0.36,10.04,0.2,11.712-1.686
					c0.267-0.301,0.542-0.771,0.301-1.736c-0.342-1.369-1.15-1.982-2.62-1.982c-0.001,0-0.002,0-0.003,0
					C226.769,369,222.152,372.01,220.657,374.404z M209.74,368.151c-0.154,0-0.309,0.008-0.466,0.023
					c-2.036,0.204-3.445,1.669-3.345,2.843c0.113,1.322,2.595,3.572,10.921,3.363C215.825,372.307,213.321,368.151,209.74,368.151z"
					/>
			</g>
			<rect x="189.542" y="375.833" style="fill:#407BFF;" width="58.458" height="40.158"/>
			<rect x="189.542" y="389.708" style="opacity:0.2;enable-background:new    ;" width="58.458" height="26.283"/>
			<rect x="189.542" y="375.833" style="opacity:0.2;enable-background:new    ;" width="23.227" height="40.158"/>
			<g style="opacity:0.3;">
				<g>
					<polygon style="fill:#FFFFFF;" points="212.75,407.252 212.75,409.929 215.217,416 216.307,416 					"/>
				</g>
				<g>
					<polygon style="fill:#FFFFFF;" points="212.75,390.035 212.75,392.702 222.217,416 223.307,416 					"/>
				</g>
				<g>
					<polygon style="fill:#FFFFFF;" points="230.307,416 213.967,375.813 212.887,375.813 229.217,416 					"/>
				</g>
				<g>
					<polygon style="fill:#FFFFFF;" points="237.307,416 220.967,375.813 219.887,375.813 236.217,416 					"/>
				</g>
				<g>
					<polygon style="fill:#FFFFFF;" points="244.307,416 227.967,375.813 226.887,375.813 243.217,416 					"/>
				</g>
				<g>
					<polygon style="fill:#FFFFFF;" points="233.883,375.813 248,411.504 248,408.817 234.963,375.813 					"/>
				</g>
				<g>
					<polygon style="fill:#FFFFFF;" points="240.881,375.813 248,394.227 248,391.55 241.96,375.813 					"/>
				</g>
			</g>
			<g style="opacity:0.2;">
				<g>
					<polygon style="fill:#FFFFFF;" points="189.583,391.106 189.583,393.774 194.636,416 195.246,416 					"/>
				</g>
				<g>
					<polygon style="fill:#FFFFFF;" points="190.021,375.813 189.583,375.813 189.583,376.547 198.553,416 199.162,416 					"/>
				</g>
				<g>
					<polygon style="fill:#FFFFFF;" points="203.079,416 193.937,375.813 193.333,375.813 202.469,416 					"/>
				</g>
				<g>
					<polygon style="fill:#FFFFFF;" points="206.995,416 197.854,375.813 197.249,375.813 206.385,416 					"/>
				</g>
				<g>
					<polygon style="fill:#FFFFFF;" points="210.912,416 201.77,375.813 201.165,375.813 210.302,416 					"/>
				</g>
				<g>
					<polygon style="fill:#FFFFFF;" points="212.75,407.785 205.684,375.813 205.08,375.813 212.75,410.473 					"/>
				</g>
				<g>
					<polygon style="fill:#FFFFFF;" points="212.75,390.488 209.599,375.813 208.995,375.813 212.75,393.172 					"/>
				</g>
			</g>
			<rect x="228.5" y="375.833" style="fill:#263238;" width="4.75" height="40.158"/>
			<rect x="197.75" y="375.833" style="fill:#263238;" width="3.488" height="40.158"/>
		</g>
		<g>
			<g>
				<path style="fill:#407BFF;" d="M256.667,389.926c-1.838,0.191-7.949,0.653-10.068-1.735c-0.501-0.565-1.021-1.232-0.654-2.7
					c0.457-1.827,1.82-2.491,3.74-2.491c0.001,0,0.002,0,0.003,0c2.508,0,5.835,1.47,7.555,3.54c1.135-1.971,3.36-5.085,6.701-4.743
					c2.424,0.242,4.255,2.027,4.083,4.054c-0.093,1.094-1.115,4.495-10.227,4.075l-0.681,1.777L256.667,389.926z M249.688,385
					c-0.001,0-0.001,0-0.002,0c-0.994,0-1.541,0.079-1.773,1.005c-0.163,0.653,0.023,0.748,0.203,0.952
					c1.132,1.276,5.155,1.627,7.924,1.383C255.029,386.72,251.906,385,249.688,385z M258.616,387.895
					c5.633,0.141,7.312-1.381,7.388-2.275c0.068-0.794-0.886-1.785-2.263-1.923c-0.106-0.011-0.211-0.016-0.315-0.016
					C261.004,383.681,259.31,386.492,258.616,387.895z"/>
			</g>
			
				<rect x="237.542" y="388.832" transform="matrix(-1 -1.224647e-16 1.224647e-16 -1 514.6327 804.832)" style="fill:#407BFF;" width="39.548" height="27.168"/>
			
				<rect x="237.542" y="388.832" transform="matrix(-1 -1.224647e-16 1.224647e-16 -1 514.6327 804.832)" style="opacity:0.6;fill:#FFFFFF;" width="39.548" height="27.168"/>
			
				<rect x="237.542" y="398.219" transform="matrix(-1 -1.224647e-16 1.224647e-16 -1 514.6327 814.2188)" style="opacity:0.1;enable-background:new    ;" width="39.548" height="17.781"/>
			
				<rect x="261.376" y="388.832" transform="matrix(-1 -1.224647e-16 1.224647e-16 -1 538.467 804.832)" style="opacity:0.2;fill:#FFFFFF;" width="15.714" height="27.168"/>
			<g style="opacity:0.4;">
				<g>
					<ellipse style="fill:#FFFFFF;" cx="238.5" cy="390.776" rx="0.477" ry="0.723"/>
					<path style="fill:#FFFFFF;" d="M242.375,390.776c0,0.399-0.214,0.723-0.477,0.723c-0.264,0-0.477-0.324-0.477-0.723
						c0-0.399,0.214-0.723,0.477-0.723C242.162,390.053,242.375,390.377,242.375,390.776z"/>
					<ellipse style="fill:#FFFFFF;" cx="245.297" cy="390.776" rx="0.477" ry="0.723"/>
					<path style="fill:#FFFFFF;" d="M249.172,390.776c0,0.399-0.214,0.723-0.477,0.723c-0.264,0-0.477-0.324-0.477-0.723
						c0-0.399,0.214-0.723,0.477-0.723C248.958,390.053,249.172,390.377,249.172,390.776z"/>
					<ellipse style="fill:#FFFFFF;" cx="252.093" cy="390.776" rx="0.477" ry="0.723"/>
					<path style="fill:#FFFFFF;" d="M255.969,390.776c0,0.399-0.214,0.723-0.477,0.723c-0.264,0-0.477-0.324-0.477-0.723
						c0-0.399,0.214-0.723,0.477-0.723C255.755,390.053,255.969,390.377,255.969,390.776z"/>
					<ellipse style="fill:#FFFFFF;" cx="258.89" cy="390.776" rx="0.477" ry="0.723"/>
				</g>
				<g>
					<path style="fill:#FFFFFF;" d="M240.676,393.429c0,0.399-0.214,0.723-0.477,0.723s-0.477-0.324-0.477-0.723
						c0-0.399,0.214-0.723,0.477-0.723S240.676,393.029,240.676,393.429z"/>
					<path style="fill:#FFFFFF;" d="M244.074,393.429c0,0.399-0.214,0.723-0.477,0.723s-0.477-0.324-0.477-0.723
						c0-0.399,0.214-0.723,0.477-0.723S244.074,393.029,244.074,393.429z"/>
					<path style="fill:#FFFFFF;" d="M247.473,393.429c0,0.399-0.214,0.723-0.477,0.723s-0.477-0.324-0.477-0.723
						c0-0.399,0.214-0.723,0.477-0.723S247.473,393.029,247.473,393.429z"/>
					<path style="fill:#FFFFFF;" d="M250.871,393.429c0,0.399-0.214,0.723-0.477,0.723s-0.477-0.324-0.477-0.723
						c0-0.399,0.214-0.723,0.477-0.723S250.871,393.029,250.871,393.429z"/>
					<path style="fill:#FFFFFF;" d="M254.27,393.429c0,0.399-0.214,0.723-0.477,0.723s-0.477-0.324-0.477-0.723
						c0-0.399,0.214-0.723,0.477-0.723S254.27,393.029,254.27,393.429z"/>
					<path style="fill:#FFFFFF;" d="M257.668,393.429c0,0.399-0.214,0.723-0.477,0.723c-0.263,0-0.477-0.324-0.477-0.723
						c0-0.399,0.214-0.723,0.477-0.723C257.454,392.706,257.668,393.029,257.668,393.429z"/>
					<path style="fill:#FFFFFF;" d="M261.066,393.429c0,0.399-0.214,0.723-0.477,0.723s-0.477-0.324-0.477-0.723
						c0-0.399,0.214-0.723,0.477-0.723S261.066,393.029,261.066,393.429z"/>
				</g>
				<g>
					<ellipse style="fill:#FFFFFF;" cx="238.5" cy="396.596" rx="0.477" ry="0.723"/>
					<path style="fill:#FFFFFF;" d="M242.375,396.596c0,0.399-0.214,0.723-0.477,0.723c-0.264,0-0.477-0.324-0.477-0.723
						s0.214-0.723,0.477-0.723C242.162,395.873,242.375,396.197,242.375,396.596z"/>
					<ellipse style="fill:#FFFFFF;" cx="245.297" cy="396.596" rx="0.477" ry="0.723"/>
					<path style="fill:#FFFFFF;" d="M249.172,396.596c0,0.399-0.214,0.723-0.477,0.723c-0.264,0-0.477-0.324-0.477-0.723
						s0.214-0.723,0.477-0.723C248.958,395.873,249.172,396.197,249.172,396.596z"/>
					<ellipse style="fill:#FFFFFF;" cx="252.093" cy="396.596" rx="0.477" ry="0.723"/>
					<path style="fill:#FFFFFF;" d="M255.969,396.596c0,0.399-0.214,0.723-0.477,0.723c-0.264,0-0.477-0.324-0.477-0.723
						s0.214-0.723,0.477-0.723C255.755,395.873,255.969,396.197,255.969,396.596z"/>
					<ellipse style="fill:#FFFFFF;" cx="258.89" cy="396.596" rx="0.477" ry="0.723"/>
				</g>
				<g>
					<path style="fill:#FFFFFF;" d="M240.676,399.249c0,0.399-0.214,0.723-0.477,0.723s-0.477-0.324-0.477-0.723
						c0-0.399,0.214-0.723,0.477-0.723S240.676,398.849,240.676,399.249z"/>
					<path style="fill:#FFFFFF;" d="M244.074,399.249c0,0.399-0.214,0.723-0.477,0.723s-0.477-0.324-0.477-0.723
						c0-0.399,0.214-0.723,0.477-0.723S244.074,398.849,244.074,399.249z"/>
					<path style="fill:#FFFFFF;" d="M247.473,399.249c0,0.399-0.214,0.723-0.477,0.723s-0.477-0.324-0.477-0.723
						c0-0.399,0.214-0.723,0.477-0.723S247.473,398.849,247.473,399.249z"/>
					<path style="fill:#FFFFFF;" d="M250.871,399.249c0,0.399-0.214,0.723-0.477,0.723s-0.477-0.324-0.477-0.723
						c0-0.399,0.214-0.723,0.477-0.723S250.871,398.849,250.871,399.249z"/>
					<path style="fill:#FFFFFF;" d="M254.27,399.249c0,0.399-0.214,0.723-0.477,0.723s-0.477-0.324-0.477-0.723
						c0-0.399,0.214-0.723,0.477-0.723S254.27,398.849,254.27,399.249z"/>
					<path style="fill:#FFFFFF;" d="M257.668,399.249c0,0.399-0.214,0.723-0.477,0.723c-0.263,0-0.477-0.324-0.477-0.723
						c0-0.399,0.214-0.723,0.477-0.723C257.454,398.526,257.668,398.849,257.668,399.249z"/>
					<path style="fill:#FFFFFF;" d="M261.066,399.249c0,0.399-0.214,0.723-0.477,0.723s-0.477-0.324-0.477-0.723
						c0-0.399,0.214-0.723,0.477-0.723S261.066,398.849,261.066,399.249z"/>
				</g>
				<g>
					<ellipse style="fill:#FFFFFF;" cx="238.5" cy="402.416" rx="0.477" ry="0.723"/>
					<path style="fill:#FFFFFF;" d="M242.375,402.416c0,0.399-0.214,0.723-0.477,0.723c-0.264,0-0.477-0.324-0.477-0.723
						c0-0.399,0.214-0.723,0.477-0.723C242.162,401.693,242.375,402.017,242.375,402.416z"/>
					<ellipse style="fill:#FFFFFF;" cx="245.297" cy="402.416" rx="0.477" ry="0.723"/>
					<path style="fill:#FFFFFF;" d="M249.172,402.416c0,0.399-0.214,0.723-0.477,0.723c-0.264,0-0.477-0.324-0.477-0.723
						c0-0.399,0.214-0.723,0.477-0.723C248.958,401.693,249.172,402.017,249.172,402.416z"/>
					<ellipse style="fill:#FFFFFF;" cx="252.093" cy="402.416" rx="0.477" ry="0.723"/>
					<path style="fill:#FFFFFF;" d="M255.969,402.416c0,0.399-0.214,0.723-0.477,0.723c-0.264,0-0.477-0.324-0.477-0.723
						c0-0.399,0.214-0.723,0.477-0.723C255.755,401.693,255.969,402.017,255.969,402.416z"/>
					<ellipse style="fill:#FFFFFF;" cx="258.89" cy="402.416" rx="0.477" ry="0.723"/>
				</g>
				<g>
					<path style="fill:#FFFFFF;" d="M240.676,405.069c0,0.399-0.214,0.723-0.477,0.723s-0.477-0.324-0.477-0.723
						c0-0.399,0.214-0.723,0.477-0.723S240.676,404.669,240.676,405.069z"/>
					<path style="fill:#FFFFFF;" d="M244.074,405.069c0,0.399-0.214,0.723-0.477,0.723s-0.477-0.324-0.477-0.723
						c0-0.399,0.214-0.723,0.477-0.723S244.074,404.669,244.074,405.069z"/>
					<path style="fill:#FFFFFF;" d="M247.473,405.069c0,0.399-0.214,0.723-0.477,0.723s-0.477-0.324-0.477-0.723
						c0-0.399,0.214-0.723,0.477-0.723S247.473,404.669,247.473,405.069z"/>
					<path style="fill:#FFFFFF;" d="M250.871,405.069c0,0.399-0.214,0.723-0.477,0.723s-0.477-0.324-0.477-0.723
						c0-0.399,0.214-0.723,0.477-0.723S250.871,404.669,250.871,405.069z"/>
					<path style="fill:#FFFFFF;" d="M254.27,405.069c0,0.399-0.214,0.723-0.477,0.723s-0.477-0.324-0.477-0.723
						c0-0.399,0.214-0.723,0.477-0.723S254.27,404.669,254.27,405.069z"/>
					<path style="fill:#FFFFFF;" d="M257.668,405.069c0,0.399-0.214,0.723-0.477,0.723c-0.263,0-0.477-0.324-0.477-0.723
						c0-0.399,0.214-0.723,0.477-0.723C257.454,404.345,257.668,404.669,257.668,405.069z"/>
					<path style="fill:#FFFFFF;" d="M261.066,405.069c0,0.399-0.214,0.723-0.477,0.723s-0.477-0.324-0.477-0.723
						c0-0.399,0.214-0.723,0.477-0.723S261.066,404.669,261.066,405.069z"/>
				</g>
				<g>
					<ellipse style="fill:#FFFFFF;" cx="238.5" cy="408.236" rx="0.477" ry="0.723"/>
					<path style="fill:#FFFFFF;" d="M242.375,408.236c0,0.399-0.214,0.723-0.477,0.723c-0.264,0-0.477-0.324-0.477-0.723
						s0.214-0.723,0.477-0.723C242.162,407.513,242.375,407.836,242.375,408.236z"/>
					<ellipse style="fill:#FFFFFF;" cx="245.297" cy="408.236" rx="0.477" ry="0.723"/>
					<path style="fill:#FFFFFF;" d="M249.172,408.236c0,0.399-0.214,0.723-0.477,0.723c-0.264,0-0.477-0.324-0.477-0.723
						s0.214-0.723,0.477-0.723C248.958,407.513,249.172,407.836,249.172,408.236z"/>
					<ellipse style="fill:#FFFFFF;" cx="252.093" cy="408.236" rx="0.477" ry="0.723"/>
					<path style="fill:#FFFFFF;" d="M255.969,408.236c0,0.399-0.214,0.723-0.477,0.723c-0.264,0-0.477-0.324-0.477-0.723
						s0.214-0.723,0.477-0.723C255.755,407.513,255.969,407.836,255.969,408.236z"/>
					<ellipse style="fill:#FFFFFF;" cx="258.89" cy="408.236" rx="0.477" ry="0.723"/>
				</g>
				<g>
					<path style="fill:#FFFFFF;" d="M240.676,410.888c0,0.399-0.214,0.723-0.477,0.723s-0.477-0.324-0.477-0.723
						c0-0.399,0.214-0.723,0.477-0.723S240.676,410.489,240.676,410.888z"/>
					<path style="fill:#FFFFFF;" d="M244.074,410.888c0,0.399-0.214,0.723-0.477,0.723s-0.477-0.324-0.477-0.723
						c0-0.399,0.214-0.723,0.477-0.723S244.074,410.489,244.074,410.888z"/>
					<path style="fill:#FFFFFF;" d="M247.473,410.888c0,0.399-0.214,0.723-0.477,0.723s-0.477-0.324-0.477-0.723
						c0-0.399,0.214-0.723,0.477-0.723S247.473,410.489,247.473,410.888z"/>
					<path style="fill:#FFFFFF;" d="M250.871,410.888c0,0.399-0.214,0.723-0.477,0.723s-0.477-0.324-0.477-0.723
						c0-0.399,0.214-0.723,0.477-0.723S250.871,410.489,250.871,410.888z"/>
					<path style="fill:#FFFFFF;" d="M254.27,410.888c0,0.399-0.214,0.723-0.477,0.723s-0.477-0.324-0.477-0.723
						c0-0.399,0.214-0.723,0.477-0.723S254.27,410.489,254.27,410.888z"/>
					<path style="fill:#FFFFFF;" d="M257.668,410.888c0,0.399-0.214,0.723-0.477,0.723c-0.263,0-0.477-0.324-0.477-0.723
						c0-0.399,0.214-0.723,0.477-0.723C257.454,410.165,257.668,410.489,257.668,410.888z"/>
					<path style="fill:#FFFFFF;" d="M261.066,410.888c0,0.399-0.214,0.723-0.477,0.723s-0.477-0.324-0.477-0.723
						c0-0.399,0.214-0.723,0.477-0.723S261.066,410.489,261.066,410.888z"/>
				</g>
				<g>
					<ellipse style="fill:#FFFFFF;" cx="238.5" cy="414.056" rx="0.477" ry="0.723"/>
					<path style="fill:#FFFFFF;" d="M242.375,414.056c0,0.399-0.214,0.723-0.477,0.723c-0.264,0-0.477-0.324-0.477-0.723
						c0-0.399,0.214-0.723,0.477-0.723C242.162,413.333,242.375,413.656,242.375,414.056z"/>
					<ellipse style="fill:#FFFFFF;" cx="245.297" cy="414.056" rx="0.477" ry="0.723"/>
					<path style="fill:#FFFFFF;" d="M249.172,414.056c0,0.399-0.214,0.723-0.477,0.723c-0.264,0-0.477-0.324-0.477-0.723
						c0-0.399,0.214-0.723,0.477-0.723C248.958,413.333,249.172,413.656,249.172,414.056z"/>
					<ellipse style="fill:#FFFFFF;" cx="252.093" cy="414.056" rx="0.477" ry="0.723"/>
					<path style="fill:#FFFFFF;" d="M255.969,414.056c0,0.399-0.214,0.723-0.477,0.723c-0.264,0-0.477-0.324-0.477-0.723
						c0-0.399,0.214-0.723,0.477-0.723C255.755,413.333,255.969,413.656,255.969,414.056z"/>
					<ellipse style="fill:#FFFFFF;" cx="258.89" cy="414.056" rx="0.477" ry="0.723"/>
				</g>
			</g>
			<g style="opacity:0.6;">
				<g>
					<ellipse style="fill:#FFFFFF;" cx="262.39" cy="390.776" rx="0.352" ry="0.723"/>
					<ellipse style="fill:#FFFFFF;" cx="264.896" cy="390.776" rx="0.352" ry="0.723"/>
					<ellipse style="fill:#FFFFFF;" cx="267.402" cy="390.776" rx="0.352" ry="0.723"/>
					<ellipse style="fill:#FFFFFF;" cx="269.908" cy="390.776" rx="0.352" ry="0.723"/>
					<ellipse style="fill:#FFFFFF;" cx="272.414" cy="390.776" rx="0.352" ry="0.723"/>
					<path style="fill:#FFFFFF;" d="M275.271,390.776c0,0.399-0.158,0.723-0.352,0.723c-0.194,0-0.352-0.324-0.352-0.723
						c0-0.399,0.158-0.723,0.352-0.723C275.114,390.053,275.271,390.377,275.271,390.776z"/>
				</g>
				<g>
					<ellipse style="fill:#FFFFFF;" cx="263.643" cy="393.429" rx="0.352" ry="0.723"/>
					<ellipse style="fill:#FFFFFF;" cx="266.149" cy="393.429" rx="0.352" ry="0.723"/>
					<ellipse style="fill:#FFFFFF;" cx="268.655" cy="393.429" rx="0.352" ry="0.723"/>
					<ellipse style="fill:#FFFFFF;" cx="271.16" cy="393.429" rx="0.352" ry="0.723"/>
					<ellipse style="fill:#FFFFFF;" cx="273.666" cy="393.429" rx="0.352" ry="0.723"/>
					<ellipse style="fill:#FFFFFF;" cx="276.172" cy="393.429" rx="0.352" ry="0.723"/>
				</g>
				<g>
					<ellipse style="fill:#FFFFFF;" cx="262.39" cy="396.596" rx="0.352" ry="0.723"/>
					<ellipse style="fill:#FFFFFF;" cx="264.896" cy="396.596" rx="0.352" ry="0.723"/>
					<ellipse style="fill:#FFFFFF;" cx="267.402" cy="396.596" rx="0.352" ry="0.723"/>
					<ellipse style="fill:#FFFFFF;" cx="269.908" cy="396.596" rx="0.352" ry="0.723"/>
					<ellipse style="fill:#FFFFFF;" cx="272.414" cy="396.596" rx="0.352" ry="0.723"/>
					<path style="fill:#FFFFFF;" d="M275.271,396.596c0,0.399-0.158,0.723-0.352,0.723c-0.194,0-0.352-0.324-0.352-0.723
						s0.158-0.723,0.352-0.723C275.114,395.873,275.271,396.197,275.271,396.596z"/>
				</g>
				<g>
					<ellipse style="fill:#FFFFFF;" cx="263.643" cy="399.249" rx="0.352" ry="0.723"/>
					<ellipse style="fill:#FFFFFF;" cx="266.149" cy="399.249" rx="0.352" ry="0.723"/>
					<ellipse style="fill:#FFFFFF;" cx="268.655" cy="399.249" rx="0.352" ry="0.723"/>
					<ellipse style="fill:#FFFFFF;" cx="271.16" cy="399.249" rx="0.352" ry="0.723"/>
					<ellipse style="fill:#FFFFFF;" cx="273.666" cy="399.249" rx="0.352" ry="0.723"/>
					<ellipse style="fill:#FFFFFF;" cx="276.172" cy="399.249" rx="0.352" ry="0.723"/>
				</g>
				<g>
					<ellipse style="fill:#FFFFFF;" cx="262.39" cy="402.416" rx="0.352" ry="0.723"/>
					<ellipse style="fill:#FFFFFF;" cx="264.896" cy="402.416" rx="0.352" ry="0.723"/>
					<ellipse style="fill:#FFFFFF;" cx="267.402" cy="402.416" rx="0.352" ry="0.723"/>
					<ellipse style="fill:#FFFFFF;" cx="269.908" cy="402.416" rx="0.352" ry="0.723"/>
					<ellipse style="fill:#FFFFFF;" cx="272.414" cy="402.416" rx="0.352" ry="0.723"/>
					<path style="fill:#FFFFFF;" d="M275.271,402.416c0,0.399-0.158,0.723-0.352,0.723c-0.194,0-0.352-0.324-0.352-0.723
						c0-0.399,0.158-0.723,0.352-0.723C275.114,401.693,275.271,402.017,275.271,402.416z"/>
				</g>
				<g>
					<ellipse style="fill:#FFFFFF;" cx="263.643" cy="405.069" rx="0.352" ry="0.723"/>
					<ellipse style="fill:#FFFFFF;" cx="266.149" cy="405.069" rx="0.352" ry="0.723"/>
					<ellipse style="fill:#FFFFFF;" cx="268.655" cy="405.069" rx="0.352" ry="0.723"/>
					<ellipse style="fill:#FFFFFF;" cx="271.16" cy="405.069" rx="0.352" ry="0.723"/>
					<ellipse style="fill:#FFFFFF;" cx="273.666" cy="405.069" rx="0.352" ry="0.723"/>
					<ellipse style="fill:#FFFFFF;" cx="276.172" cy="405.069" rx="0.352" ry="0.723"/>
				</g>
				<g>
					<ellipse style="fill:#FFFFFF;" cx="262.39" cy="408.236" rx="0.352" ry="0.723"/>
					<ellipse style="fill:#FFFFFF;" cx="264.896" cy="408.236" rx="0.352" ry="0.723"/>
					<ellipse style="fill:#FFFFFF;" cx="267.402" cy="408.236" rx="0.352" ry="0.723"/>
					<ellipse style="fill:#FFFFFF;" cx="269.908" cy="408.236" rx="0.352" ry="0.723"/>
					<ellipse style="fill:#FFFFFF;" cx="272.414" cy="408.236" rx="0.352" ry="0.723"/>
					<path style="fill:#FFFFFF;" d="M275.271,408.236c0,0.399-0.158,0.723-0.352,0.723c-0.194,0-0.352-0.324-0.352-0.723
						s0.158-0.723,0.352-0.723C275.114,407.513,275.271,407.836,275.271,408.236z"/>
				</g>
				<g>
					<ellipse style="fill:#FFFFFF;" cx="263.643" cy="410.888" rx="0.352" ry="0.723"/>
					<ellipse style="fill:#FFFFFF;" cx="266.149" cy="410.888" rx="0.352" ry="0.723"/>
					<ellipse style="fill:#FFFFFF;" cx="268.655" cy="410.888" rx="0.352" ry="0.723"/>
					<ellipse style="fill:#FFFFFF;" cx="271.16" cy="410.888" rx="0.352" ry="0.723"/>
					<ellipse style="fill:#FFFFFF;" cx="273.666" cy="410.888" rx="0.352" ry="0.723"/>
					<ellipse style="fill:#FFFFFF;" cx="276.172" cy="410.888" rx="0.352" ry="0.723"/>
				</g>
				<g>
					<ellipse style="fill:#FFFFFF;" cx="262.39" cy="414.056" rx="0.352" ry="0.723"/>
					<ellipse style="fill:#FFFFFF;" cx="264.896" cy="414.056" rx="0.352" ry="0.723"/>
					<ellipse style="fill:#FFFFFF;" cx="267.402" cy="414.056" rx="0.352" ry="0.723"/>
					<ellipse style="fill:#FFFFFF;" cx="269.908" cy="414.056" rx="0.352" ry="0.723"/>
					<ellipse style="fill:#FFFFFF;" cx="272.414" cy="414.056" rx="0.352" ry="0.723"/>
					<path style="fill:#FFFFFF;" d="M275.271,414.056c0,0.399-0.158,0.723-0.352,0.723c-0.194,0-0.352-0.324-0.352-0.723
						c0-0.399,0.158-0.723,0.352-0.723C275.114,413.333,275.271,413.656,275.271,414.056z"/>
				</g>
			</g>
			
				<rect x="247.521" y="388.832" transform="matrix(-1 -1.224647e-16 1.224647e-16 -1 498.2555 804.832)" style="fill:#407BFF;" width="3.214" height="27.168"/>
			
				<rect x="269.178" y="388.832" transform="matrix(-1 -1.224647e-16 1.224647e-16 -1 540.7155 804.832)" style="fill:#407BFF;" width="2.36" height="27.168"/>
		</g>
	</g>
</g>
</svg>
