<?xml version="1.0" standalone="no"?>
<!DOCTYPE svg PUBLIC "-//W3C//DTD SVG 20010904//EN"
 "http://www.w3.org/TR/2001/REC-SVG-20010904/DTD/svg10.dtd">
<svg version="1.0" xmlns="http://www.w3.org/2000/svg"
 width="800.000000pt" height="701.000000pt" viewBox="0 0 800.000000 701.000000"
 preserveAspectRatio="xMidYMid meet">

<g transform="translate(0.000000,701.000000) scale(0.100000,-0.100000)"
fill="#000000" stroke="none">
<path d="M3505 6143 c-269 -472 -952 -1670 -1518 -2663 -1181 -2071 -1967
-3451 -1975 -3465 -10 -18 93 70 1388 1186 190 163 530 456 755 650 226 194
506 435 622 536 270 232 504 434 1183 1018 300 258 592 510 650 560 58 50 220
189 360 310 386 331 392 337 385 354 -12 31 -1349 2371 -1355 2371 -3 0 -226
-386 -495 -857z"/>
<path d="M5315 2199 c-621 -9 -1158 -19 -1193 -21 l-63 -3 773 -427 c425 -235
1309 -724 1963 -1086 655 -362 1192 -657 1194 -656 2 2 -280 499 -626 1106
l-628 1103 -145 1 c-80 1 -653 -7 -1275 -17z"/>
</g>
</svg>
