<svg xmlns="http://www.w3.org/2000/svg" fill-rule="evenodd" stroke-linejoin="round" stroke-miterlimit="2" clip-rule="evenodd" viewBox="0 0 32 33" id="id-card"><g transform="translate(0 .98)"><rect width="32" height="32" fill="none"></rect><path fill="#f5f5f5" d="M30,192.98C30,191.323 28.657,189.98 27,189.98C22.157,189.98 9.843,189.98 5,189.98C3.343,189.98 2,191.323 2,192.98C2,195.851 2,201.109 2,203.98C2,205.637 3.343,206.98 5,206.98C9.843,206.98 22.157,206.98 27,206.98C28.657,206.98 30,205.637 30,203.98L30,192.98Z" transform="translate(0 -179.98)"></path><path fill="#e0e0e0" d="M30,202.98L30,203.98C30,205.637 28.657,206.98 27,206.98C22.157,206.98 9.843,206.98 5,206.98C3.343,206.98 2,205.637 2,203.98L2,202.98C2,204.637 3.343,205.98 5,205.98C9.843,205.98 22.157,205.98 27,205.98C28.657,205.98 30,204.637 30,202.98Z" transform="translate(0 -179.98)"></path><path fill="#757575" d="M20,201.98L25,201.98C25.552,201.98 26,201.532 26,200.98C26,200.428 25.552,199.98 25,199.98L20,199.98C19.448,199.98 19,200.428 19,200.98C19,201.532 19.448,201.98 20,201.98ZM20,197.98L24,197.98C24.552,197.98 25,197.532 25,196.98C25,196.428 24.552,195.98 24,195.98L20,195.98C19.448,195.98 19,196.428 19,196.98C19,197.532 19.448,197.98 20,197.98Z" transform="translate(0 -179.98)"></path><circle cx="12" cy="188.48" r="3.5" fill="#90caf9" transform="translate(0 -179.98)"></circle><path fill="#64b5f6" d="M15.464,187.98C15.488,188.143 15.5,188.31 15.5,188.48C15.5,190.412 13.932,191.98 12,191.98C10.068,191.98 8.5,190.412 8.5,188.48C8.5,188.31 8.512,188.143 8.536,187.98C8.779,189.676 10.238,190.98 12,190.98C13.762,190.98 15.221,189.676 15.464,187.98Z" transform="translate(0 -179.98)"></path><path fill="#42a5f5" d="M17.252,197.113C16.88,194.734 14.831,192.98 12.423,192.98C12.142,192.98 11.858,192.98 11.577,192.98C9.169,192.98 7.12,194.734 6.748,197.113C6.551,198.376 6.338,199.738 6.192,200.671C6.102,201.249 6.269,201.837 6.649,202.281C7.029,202.725 7.584,202.98 8.168,202.98C10.093,202.98 13.907,202.98 15.832,202.98C16.416,202.98 16.971,202.725 17.351,202.281C17.731,201.837 17.898,201.249 17.808,200.672L17.252,197.113Z" transform="translate(0 -179.98)"></path><path fill="#2196f3" d="M6.333,199.774C6.411,199.956 6.517,200.127 6.649,200.281C7.029,200.725 7.584,200.98 8.168,200.98C10.093,200.98 13.907,200.98 15.832,200.98C16.416,200.98 16.971,200.725 17.351,200.281C17.483,200.127 17.589,199.956 17.667,199.774L17.808,200.672C17.898,201.249 17.731,201.837 17.351,202.281C16.971,202.725 16.416,202.98 15.832,202.98C13.907,202.98 10.093,202.98 8.168,202.98C7.584,202.98 7.029,202.725 6.649,202.281C6.269,201.837 6.102,201.249 6.192,200.671L6.333,199.774Z" transform="translate(0 -179.98)"></path></g></svg>